<?xml version="1.0" encoding="UTF-8"?>
<svg width="22px" height="22px" viewBox="0 0 22 22" version="1.1" xmlns="http://www.w3.org/2000/svg" xmlns:xlink="http://www.w3.org/1999/xlink">
    <!-- Generator: Sketch 53 (72520) - https://sketchapp.com -->
    <title>用户头像/默认</title>
    <desc>Created with Sketch.</desc>
    <g id="用户头像/默认" stroke="none" stroke-width="1" fill="none" fill-rule="evenodd">
        <circle id="圆" fill="#669CFC" cx="11" cy="11" r="11"></circle>
        <path d="M19.0466819,18.5001226 C17.0386936,20.6535006 14.1765927,22 11,22 C7.78462122,22 4.89146098,20.6204184 2.88014869,18.4208847 C4.19797841,17.6326918 5.91789316,17.5152166 6.85528564,17.2796354 C7.99802653,16.9924471 8.58518473,16.2150025 8.61676025,14.9473019 L13.2578125,14.9473019 C13.1956042,16.1827613 13.7619529,16.9602059 14.9568585,17.2796354 C15.9653178,17.549223 17.7646176,17.6518191 19.0466819,18.5001226 Z" id="身体反光" fill-opacity="0.8" fill="#FFFFFF"></path>
        <path d="M18.9944149,18.5557878 C16.9891856,20.6766804 14.1491317,22 11,22 C7.84035114,22 4.99184803,20.6678266 2.98552253,18.5345118 C4.29874547,17.7646409 5.99700182,17.6471691 6.92625917,17.4136324 C8.06900005,17.126444 8.66665976,16.3043338 8.71923828,14.9473019 L13.2578125,14.9473019 C13.2429199,16.2720926 13.8329264,17.0942028 15.027832,17.4136324 C16.0043747,17.6746879 17.7224915,17.7791547 18.9944149,18.5557878 Z" id="身体" fill="#CCDFFF"></path>
        <path d="M6.33794812,11.8507219 C5.77007729,11.6329906 4.80842679,10.9310478 4.80842679,9.64645811 C4.80842679,8.72579503 5.39394025,8.27994101 6.02323492,8.16114704 C6.20754598,5.76264535 8.16196431,3.82795896 10.6247981,3.72683085 C10.690587,3.72412945 10.7564245,3.72277832 10.8222688,3.72277832 C13.3486037,3.72277832 15.4177086,5.68041309 15.5953813,8.16148065 C16.2240062,8.28077402 16.8084268,8.72665466 16.8084268,9.64645811 C16.8084268,10.8994046 15.8935693,11.5980552 15.321567,11.833749 C14.6439301,14.2078459 12.5020348,15.7227783 10.8155098,15.7227783 C9.13749878,15.7227783 6.89788937,14.0864019 6.33794812,11.8507219 Z" id="脸反光" fill="#F3F7FF" opacity="0.3"></path>
        <path d="M6.53210224,12.1279436 C5.96423141,11.9102123 5.00258092,11.2082695 5.00258092,9.92367979 C5.00258092,9.00301671 5.58809437,8.55716269 6.21738904,8.43836872 C6.4017001,6.03986703 8.35611843,4.10518064 10.8189522,4.00405253 C10.8847411,4.00135113 10.9505786,4 11.016423,4 C13.5427579,4 15.6118627,5.95763477 15.7895354,8.43870233 C16.4181603,8.5579957 17.0025809,9.00387634 17.0025809,9.92367979 C17.0025809,11.1766263 16.0877234,11.8752769 15.5157211,12.1109706 C14.8380842,14.4850675 12.6961889,16 11.0096639,16 C9.33165291,16 7.09204349,14.3636236 6.53210224,12.1279436 Z" id="脸" fill="#F3F7FF"></path>
    </g>
</svg>