<?xml version="1.0" standalone="no"?><!DOCTYPE svg PUBLIC "-//W3C//DTD SVG 1.1//EN" "http://www.w3.org/Graphics/SVG/1.1/DTD/svg11.dtd"><svg t="1554947068793" class="icon" style="" viewBox="0 0 1024 1024" version="1.1" xmlns="http://www.w3.org/2000/svg" p-id="1229" xmlns:xlink="http://www.w3.org/1999/xlink" width="200" height="200"><defs><style type="text/css"></style></defs><path d="M860.16 719.99488c0 134.98368-61.89056 134.71744-360.73472 134.71744s-360.67328 0.26624-360.67328-134.71744c0-147.3536 161.52576-441.344 360.67328-441.344S860.16 572.64128 860.16 719.99488zM500.55168 341.87264a153.6 153.6 0 1 0 108.544 45.32224 153.6 153.6 0 0 0-108.544-45.32224z m0 0" fill="#ffffff" p-id="1230"></path><path d="M192.512 457.50272C255.3856 356.352 363.97056 248.4224 512 248.4224s263.61856 116.736 316.0064 208.22016c27.07456 45.32224 79.11424 40.50944 101.82656 0 14.49984-30.39232 60.02688-284.672-417.792-284.672C28.672 172.66688 78.56128 434.72896 95.62112 456.704c30.02368 45.95712 86.6304 22.528 96.91136 0.86016" fill="#ffffff" p-id="1231"></path></svg>