<?xml version="1.0" encoding="UTF-8"?>
<svg width="24px" height="24px" viewBox="0 0 24 24" version="1.1" xmlns="http://www.w3.org/2000/svg" xmlns:xlink="http://www.w3.org/1999/xlink">
    <!-- Generator: Sketch 52.4 (67378) - http://www.bohemiancoding.com/sketch -->
    <title>User_img</title>
    <desc>Created with Sketch.</desc>
    <defs>
        <circle id="path-1" cx="12" cy="12" r="12"></circle>
        <filter x="-170.6%" y="-123.1%" width="441.2%" height="346.2%" filterUnits="objectBoundingBox" id="filter-3">
            <feGaussianBlur stdDeviation="12.1" in="SourceGraphic"></feGaussianBlur>
        </filter>
        <filter x="0.0%" y="0.0%" width="100.0%" height="100.0%" filterUnits="objectBoundingBox" id="filter-4">
            <feGaussianBlur stdDeviation="0" in="SourceGraphic"></feGaussianBlur>
        </filter>
        <linearGradient x1="50%" y1="100%" x2="50%" y2="3.061617e-15%" id="linearGradient-5">
            <stop stop-color="#47A3FF" offset="0%"></stop>
            <stop stop-color="#7FBFFF" offset="100%"></stop>
        </linearGradient>
    </defs>
    <g id="组件" stroke="none" stroke-width="1" fill="none" fill-rule="evenodd">
        <g id="User_img">
            <g>
                <g id="分组-3">
                    <mask id="mask-2" fill="white">
                        <use xlink:href="#path-1"></use>
                    </mask>
                    <use id="椭圆形" fill="#E2F1FF" xlink:href="#path-1"></use>
                    <g id="分组-2" mask="url(#mask-2)">
                        <g transform="translate(1.142857, 0.571429)">
                            <path d="M13.2052746,15.1217355 C13.3224827,17.7153711 14.5014624,17.2524217 17.9881011,18.4734704 C21.6738548,19.7642507 21.4289858,21.7819038 21.4289858,23.6606414 C21.4289858,24.9131331 20.786733,26.8560032 19.5022276,29.4892516 L1.74499692,28.8700297 C0.927362463,28.8552182 0.403353219,27.1187554 0.172969186,23.6606414 C-0.172606862,18.4734704 4.29350094,18.1438753 6.27135658,17.5769902 C7.46388992,17.235191 8.16889472,16.4464366 8.386371,15.2107269 C8.3766453,15.2050007 8.36698797,15.1992378 8.35740008,15.1934385 C7.56143087,14.7119869 6.8884158,13.7979394 6.33835485,12.4512958 C5.30517401,12.3672892 4.64968566,11.6101898 4.37188982,10.1799978 C3.95519605,8.03470961 5.33549773,8.19095338 5.33549773,7.89365361 C5.33549773,7.59635384 5.14297068,5.96191406 5.43922776,4.88998576 C5.99153915,2.4854765 7.7484844,0.924385467 10.7100635,0.20671267 C11.627709,-0.0689042233 11.9478437,-0.0689042233 11.6704674,0.20671267 C10.5180514,1.63182761 12.0771486,1.25928671 14.3758015,2.31163171 C15.9082367,3.01319505 16.5968714,4.90832112 16.4417055,7.99700995 C17.278564,8.24542328 17.5529651,8.97308588 17.2649088,10.1799978 C16.9768525,11.3869096 16.2880365,12.144009 15.1984608,12.4512958 C14.6779895,13.6440633 14.0135941,14.5342099 13.2052746,15.1217355 Z" id="合并形状" fill-opacity="0.14" fill="#949494" filter="url(#filter-3)"></path>
                            <path d="M13.1482025,16.8534265 C13.2654106,19.4470621 14.4443903,18.9841128 17.931029,20.2051614 C21.6167827,21.4959417 21.3719137,23.5135948 21.3719137,25.3923324 C21.3719137,26.6448241 20.729661,28.5876942 19.4451556,31.2209426 L1.68792485,30.6017207 C0.870290394,30.5869092 0.34628115,28.8504464 0.115897118,25.3923324 C-0.229678931,20.2051614 4.23642887,19.8755664 6.21428451,19.3086812 C7.40681785,18.966882 8.11182266,18.1781276 8.32929893,16.9424179 C8.31957323,16.9366917 8.3099159,16.9309289 8.30032801,16.9251295 C7.5043588,16.443678 6.83134373,15.5296304 6.28128278,14.1829868 C5.24810194,14.0989802 4.5926136,13.3418809 4.31481775,11.9116888 C3.89812398,9.76640063 5.27842566,9.9226444 5.27842566,9.62534462 C5.27842566,9.32804485 5.08589861,7.69360508 5.38215569,6.62167677 C5.93446708,4.21716751 7.69141233,2.65607648 10.6529914,1.93840368 C11.570637,1.66278679 11.8907716,1.66278679 11.6133953,1.93840368 C10.4609793,3.36351862 12.0200766,2.99097773 14.3187294,4.04332273 C15.8511647,4.74488606 16.5397993,6.64001214 16.3846334,9.72870096 C17.2214919,9.97711429 17.4958931,10.7047769 17.2078367,11.9116888 C16.9197804,13.1186006 16.2309644,13.8757 15.1413887,14.1829868 C14.6209174,15.3757543 13.956522,16.2659009 13.1482025,16.8534265 Z" id="反光" fill="#FFFFFF" opacity="0.70219494" filter="url(#filter-4)"></path>
                            <path d="M8.43898806,16.6802809 C8.31247083,18.1510521 7.589927,19.0753994 6.27135658,19.4533228 C4.29350094,20.020208 -0.172606862,20.349803 0.172969186,25.536974 C0.403353219,28.995088 0.927362463,30.7315508 1.74499692,30.7463624 L19.5022276,31.3655842 C20.786733,28.7323358 21.4289858,26.7894658 21.4289858,25.536974 C21.4289858,23.6582364 21.6738548,21.6405834 17.9881011,20.349803 C14.3023473,19.0590227 13.1953503,19.650072 13.1953503,16.5229274 C11.7302757,15.238064 10.1448216,15.2905152 8.43898806,16.6802809 Z" id="路径-7" fill="#3A9DFF"></path>
                            <path d="M10.7100635,2.08304529 C7.7484844,2.80071809 5.99153915,4.36180912 5.43922776,6.76631838 C5.14297068,7.83824669 5.33549773,9.47268646 5.33549773,9.76998623 C5.33549773,10.067286 3.95519605,9.91104224 4.37188982,12.0563304 C4.64968566,13.4865225 5.30517401,14.2436218 6.33835485,14.3276284 C6.8884158,15.674272 7.56143087,16.5883196 8.35740008,17.0697711 C9.55135388,17.7919485 11.8221422,17.9483859 13.1037207,17.0697711 C13.9581063,16.484028 14.656353,15.5699804 15.1984608,14.3276284 C16.2880365,14.0203416 16.9768525,13.2632422 17.2649088,12.0563304 C17.5529651,10.8494185 17.278564,10.1217559 16.4417055,9.87334257 C16.5968714,6.78465375 15.9082367,4.88952767 14.3758015,4.18796434 C12.0771486,3.13561934 10.5180514,3.50816023 11.6704674,2.08304529 C11.9478437,1.8074284 11.627709,1.8074284 10.7100635,2.08304529 Z" id="路径-5" fill="url(#linearGradient-5)"></path>
                        </g>
                    </g>
                </g>
                <rect id="矩形" fill="#FFFFFF" fill-rule="nonzero" opacity="0" x="0" y="0" width="24" height="24"></rect>
            </g>
        </g>
    </g>
</svg>