<?xml version="1.0" encoding="UTF-8"?>
<svg width="28px" height="28px" viewBox="0 0 28 28" version="1.1" xmlns="http://www.w3.org/2000/svg" xmlns:xlink="http://www.w3.org/1999/xlink">
    <!-- Generator: Sketch 54 (76480) - https://sketchapp.com -->
    <title>LOGO</title>
    <desc>Created with Sketch.</desc>
    <defs>
        <path d="M15.1854545,0.0648083916 C15.1170909,0.0571622378 15.0476364,0.0496237762 14.9782727,0.0444545455 C15.0455455,0.0508083916 15.115,0.0571622378 15.1854545,0.0648083916 Z M20.0877273,3.62418182 C20.0877273,1.84454545 17.6163636,0.296545455 15.1854545,0.0616363636 C16.9522727,0.222909091 19.5925455,0.909727273 21.1346364,2.04527273 C22.4191818,2.99118182 23.2192727,4.60272727 23.2192727,6.26809091 C23.2192727,13.5161818 10.0076364,13.013 10.0076364,21.0527273 C10.0076364,25.4988182 14.3735455,28.5849091 18.5985455,27.1503636 C17.1980909,27.6801818 15.5262727,27.9162727 13.9751818,27.9162727 C5.71109091,27.9162727 0.515090909,20.8263636 0.515090909,16.6558182 C0.515090909,6.47109091 20.0877273,9.73454545 20.0877273,3.62418182 Z" id="path-1"></path>
    </defs>
    <g id="sscbot-后台管理" stroke="none" stroke-width="1" fill="none" fill-rule="evenodd">
        <g id="人员管理-部门管理" transform="translate(-30.000000, -11.000000)">
            <g id="TOP">
                <g id="LOGO" transform="translate(30.000000, 11.000000)">
                    <path d="M0.0205090909,13.9627727 C0.0205090909,22.1498636 6.82005455,27.9162273 13.9751455,27.9162273 C22.0586909,27.9162273 27.9276909,21.3507727 27.9276909,13.9627727 C27.9276909,12.5841364 27.7695091,11.0175909 27.0559636,9.09259091 C28.6284182,17.1877727 22.1408727,22.8121364 15.8895091,22.8121364 C11.4765091,22.8121364 7.49669091,20.4481364 5.59687273,16.3215 C3.78078182,12.3775 4.10287273,7.68413636 7.02614545,4.23313636 C8.47632727,2.52068182 10.8932364,0.453590909 14.9782364,0.0444090909 C7.60787273,-0.375409091 0.0205090909,5.00759091 0.0205090909,13.9627727" id="Fill-1" fill="#FFFFFF" opacity="0.400000006"></path>
                    <mask id="mask-2" fill="white">
                        <use xlink:href="#path-1"></use>
                    </mask>
                    <use id="Clip-5" fill="#FFFFFF" xlink:href="#path-1"></use>
                </g>
            </g>
        </g>
    </g>
</svg>