<?xml version="1.0" encoding="UTF-8"?>
<svg width="14px" height="50px" viewBox="0 0 14 50" version="1.1" xmlns="http://www.w3.org/2000/svg" xmlns:xlink="http://www.w3.org/1999/xlink">
    <!-- Generator: Sketch 52.6 (67491) - http://www.bohemiancoding.com/sketch -->
    <title>收起</title>
    <desc>Created with Sketch.</desc>
    <g id="前端开发用" stroke="none" stroke-width="1" fill="none" fill-rule="evenodd">
        <g id="通用基础组件_04" transform="translate(-560.000000, -4867.000000)" fill-rule="nonzero">
            <g id="收起" transform="translate(560.000000, 4867.000000)">
                <path d="M7.5,6.5 C11.0898509,6.5 14,9.41014913 14,13 L14,37 C14,40.5898509 11.0898509,43.5 7.5,43.5 C3.91014913,43.5 1,46.4101491 1,50 L0,50 L0,0 L1,0 C1,3.58985087 3.91014913,6.5 7.5,6.5 Z" id="矩形" fill="#F8F9FB"></path>
                <path d="M0,50 C5.68434189e-14,45.8578644 3.35786438,42.5 7.5,42.5 C10.5375661,42.5 13,40.0375661 13,37 L13,13 C13,9.96243388 10.5375661,7.5 7.5,7.5 C3.35786438,7.5 1.0658141e-13,4.14213562 0,0 L1,0 C1,3.58985087 3.91014913,6.5 7.5,6.5 C11.0898509,6.5 14,9.41014913 14,13 L14,37 C14,40.5898509 11.0898509,43.5 7.5,43.5 C3.91014913,43.5 1,46.4101491 1,50 L0,50 Z" id="路径" fill="#E5E5F0"></path>
                <path d="M8.76179903,27.9649244 C9.13680105,28.3708346 9.06192483,28.9543776 8.58727574,29.2831907 C8.09471737,29.6244104 7.3687012,29.5545566 6.97847376,29.132166 L3.23820736,25.0836208 C2.92059755,24.7398331 2.92059755,24.2601669 3.23820736,23.9163792 L6.97847376,19.867834 C7.3687012,19.4454434 8.09471737,19.3755896 8.58727574,19.7168093 C9.06192483,20.0456224 9.13680105,20.6291654 8.76179903,21.0350756 L5.81148007,24.2285646 C5.66989006,24.3818247 5.66989006,24.6181753 5.81148007,24.7714354 L8.76179903,27.9649244 Z" id="箭头" fill="#999999"></path>
            </g>
        </g>
    </g>
</svg>