<?xml version="1.0" encoding="UTF-8"?>
<svg width="114px" height="40px" viewBox="0 0 114 40" version="1.1" xmlns="http://www.w3.org/2000/svg" xmlns:xlink="http://www.w3.org/1999/xlink">
    <!-- Generator: Sketch 52.4 (67378) - http://www.bohemiancoding.com/sketch -->
    <title>ec_logo</title>
    <desc>Created with Sketch.</desc>
    <g id="组件" stroke="none" stroke-width="1" fill="none" fill-rule="evenodd">
        <g id="ec_logo">
            <g>
              
                <path d="M0.0262700715,19.9521364 C0.0262700715,30.4783961 8.7358002,37.8922922 17.9007481,37.8922922 C28.2549524,37.8922922 35.7725479,29.4509935 35.7725479,19.9521364 C35.7725479,18.1796039 35.569933,16.165474 34.6559534,13.690474 C36.6701087,24.0985649 28.360219,31.3298896 20.3528543,31.3298896 C14.7002476,31.3298896 9.60250296,28.290461 7.16902799,22.9847857 C4.84279918,17.9139286 5.25536507,11.8796039 8.99978182,7.4426039 C10.8573181,5.24087662 13.9531342,2.58318831 19.1856061,2.0570974 C9.74491563,1.51733117 0.0262700715,8.43833117 0.0262700715,19.9521364" id="Fill-1" fill="#A4AABB"></path>
                <path d="M19.4510317,2.08145584 C19.3634648,2.07232727 19.2745005,2.06332727 19.1856527,2.05715584 C19.2718223,2.06474156 19.3607865,2.07232727 19.4510317,2.08145584 Z M25.7303473,6.65966234 C25.7303473,4.37155844 22.5647804,2.38127273 19.4510317,2.07924675 C21.7141471,2.2865974 25.0960695,3.16964935 27.071332,4.62963636 C28.7167048,5.84580519 29.7415403,7.91779221 29.7415403,10.058974 C29.7415403,19.3779481 12.8187702,18.731 12.8187702,29.0677922 C12.8187702,34.7841948 18.4110582,38.752026 23.822856,36.9076104 C22.0290153,37.5888052 19.8875853,37.8923506 17.9007947,37.8923506 C7.31532993,37.8923506 0.659779367,28.7767532 0.659779367,23.4146234 C0.659779367,10.319974 25.7303473,14.5158442 25.7303473,6.65966234 Z" id="Clip-5" fill="#FFFFFF"></path>
                <rect id="矩形" fill="#FFFFFF" fill-rule="nonzero" opacity="0" x="0" y="0" width="114" height="40"></rect>
            </g>
        </g>
    </g>
</svg>