<?xml version="1.0" encoding="UTF-8"?>
<svg width="114px" height="40px" viewBox="0 0 114 40" version="1.1" xmlns="http://www.w3.org/2000/svg" xmlns:xlink="http://www.w3.org/1999/xlink">
    <!-- Generator: Sketch 52.4 (67378) - http://www.bohemiancoding.com/sketch -->
    <title>ec_logo</title>
    <desc>Created with Sketch.</desc>
    <g id="组件" stroke="none" stroke-width="1" fill="none" fill-rule="evenodd">
        <g id="ec_logo">
            <g>
                <path d="M111.718377,12.8866613 L105.883322,12.8873073 C105.6072,12.8873354 105.383373,13.1111848 105.383373,13.3873073 L105.383374,18.1295138 C105.383374,18.4056359 105.6072,18.6294851 105.883322,18.6295138 L111.592297,18.6302616 C112.144542,18.6303189 112.592194,19.0780174 112.592194,19.6302616 L112.592297,20.7623743 C112.592297,21.314659 112.144582,21.7623743 111.592297,21.7623743 L105.884047,21.7624309 C105.607926,21.7624309 105.384078,21.986254 105.384047,22.2623743 L105.383322,28.1574782 C105.384047,29.0721328 106.015892,29.7242823 106.901344,29.7242823 L111.718377,29.7245137 C112.270571,29.7245137 112.718249,30.172088 112.718377,30.7242824 L112.71923,31.8571428 C112.719357,32.4094275 112.271746,32.8572463 111.719461,32.8573741 C111.719341,32.8573741 111.719221,32.8573741 111.719101,32.8573741 L106.901344,32.856395 C104.372515,32.856395 102.349451,30.7683199 102.348727,28.1574782 L102.348755,13.2556808 C102.348755,12.9795384 102.124898,12.7556808 101.848755,12.7556808 C101.848746,12.7556808 101.848736,12.7556808 101.848727,12.7556808 L89.8241685,12.7565548 C89.5480866,12.7565707 89.3242669,12.9803468 89.3241972,13.2564287 L89.3227598,17.9986351 C89.3226901,18.2747775 89.5464912,18.4986916 89.8226336,18.4987613 C89.8226622,18.4987613 89.8226907,18.4987613 89.8227193,18.4987613 L97.5547581,18.4993325 C98.1070309,18.4993773 98.554705,18.9471102 98.5546771,19.499383 L98.5540335,31.856395 C98.5540056,32.40866 98.1062985,32.8563445 97.5540335,32.8563445 L96.5194382,32.8564603 C95.9671535,32.8564603 95.5194382,32.408745 95.5194382,31.8564603 C95.5194382,31.8564385 95.5194382,31.8564167 95.5194382,31.856395 L95.5202244,22.2616264 C95.5202424,21.985484 95.2963994,21.7616118 95.0202571,21.7615937 C95.0202256,21.7615937 95.0201942,21.7615937 95.0201628,21.7615937 L89.9502476,21.7623743 C89.6741293,21.7624083 89.4503093,21.9862559 89.4503093,22.2623743 L89.450494,31.856395 C89.450494,32.4086797 89.0027788,32.856395 88.450494,32.856395 C88.4504119,32.856395 88.4503297,32.856395 88.4502476,32.8563949 L87.4149278,32.8556471 C86.8627393,32.855511 86.4151742,32.4078356 86.4151742,31.8556471 L86.4149278,12.62555 C86.4149278,10.9278672 87.6793425,9.62282025 89.3234439,9.62356813 L99.5727803,9.62282025 C99.8489091,9.62280103 100.072746,9.39894904 100.072746,9.12282025 L100.073273,8.1443529 C100.073273,7.59226063 100.520688,7.14462515 101.07278,7.14435302 L102.107376,7.14314925 C102.65966,7.14287703 103.107596,7.59037155 103.107868,8.14265623 C103.107868,8.14272317 103.107868,8.1427901 103.107868,8.14285704 L103.1081,9.1235681 C103.108181,9.39965343 103.332015,9.62342206 103.6081,9.62342206 L109.183057,9.62356813 C109.459199,9.62356813 109.683057,9.3997105 109.683057,9.12356813 L109.683057,8.14360502 C109.683057,7.59132027 110.130772,7.14360502 110.683057,7.14360502 L111.717652,7.1437312 C112.269887,7.1437312 112.717582,7.59136956 112.717652,8.14360503 L112.718275,11.8865594 C112.718344,12.4388441 112.270685,12.8866159 111.718401,12.8866856 C111.718393,12.8866856 111.718385,12.8866856 111.718377,12.8866856 Z" id="Fill-1" fill="#FFFFFF"></path>
                <path d="M73.5743145,8.75 C77.2289393,8.75 80.1011782,11.6717949 80.1019262,15.2578417 L80.1019262,19.967516 C80.1019262,20.5198008 79.6542109,20.967516 79.1019262,20.967516 L76.9693906,20.967516 L62.8265581,20.9665203 C62.2743847,20.9664926 61.8267381,20.5189285 61.8266084,19.9667551 L61.8258604,18.7809334 C61.8257307,18.2286487 62.2733409,17.7808283 62.8256256,17.7806987 C62.8256871,17.7806986 62.8257486,17.7806986 62.8258101,17.7806986 L76.4686426,17.7801725 C76.7447752,17.7801586 76.9686175,17.5563051 76.9686175,17.2801725 L76.9686426,16.0529656 C76.9686426,13.7961834 75.2064044,12.0035404 72.987899,12.0035404 L61.1084984,12.0035404 C58.8884971,12.0035404 57.1262588,13.7961834 57.1270068,16.0537265 L57.1262588,24.9507443 C57.1262588,27.2090483 58.8884971,29.0016912 61.1084984,29.0016912 C61.1084984,29.0016912 78.0778953,29.0009304 78.2095396,29.0009304 L78.208749,31.3206677 C78.2086246,31.8728478 77.7609717,32.3204188 77.2087916,32.3204423 L60.3253645,32.3214286 C56.7350659,32.2544708 53.7985008,29.2672398 53.7977528,25.681193 L53.7977528,15.3240386 C53.7977528,11.7387527 56.7350659,8.75076088 60.2602904,8.75 L73.5743145,8.75 Z" id="Fill-4" fill="#FFFFFF"></path>
                <path d="M0.0262700715,19.9521364 C0.0262700715,30.4783961 8.7358002,37.8922922 17.9007481,37.8922922 C28.2549524,37.8922922 35.7725479,29.4509935 35.7725479,19.9521364 C35.7725479,18.1796039 35.569933,16.165474 34.6559534,13.690474 C36.6701087,24.0985649 28.360219,31.3298896 20.3528543,31.3298896 C14.7002476,31.3298896 9.60250296,28.290461 7.16902799,22.9847857 C4.84279918,17.9139286 5.25536507,11.8796039 8.99978182,7.4426039 C10.8573181,5.24087662 13.9531342,2.58318831 19.1856061,2.0570974 C9.74491563,1.51733117 0.0262700715,8.43833117 0.0262700715,19.9521364" id="Fill-1" fill="#A4AABB"></path>
                <path d="M19.4510317,2.08145584 C19.3634648,2.07232727 19.2745005,2.06332727 19.1856527,2.05715584 C19.2718223,2.06474156 19.3607865,2.07232727 19.4510317,2.08145584 Z M25.7303473,6.65966234 C25.7303473,4.37155844 22.5647804,2.38127273 19.4510317,2.07924675 C21.7141471,2.2865974 25.0960695,3.16964935 27.071332,4.62963636 C28.7167048,5.84580519 29.7415403,7.91779221 29.7415403,10.058974 C29.7415403,19.3779481 12.8187702,18.731 12.8187702,29.0677922 C12.8187702,34.7841948 18.4110582,38.752026 23.822856,36.9076104 C22.0290153,37.5888052 19.8875853,37.8923506 17.9007947,37.8923506 C7.31532993,37.8923506 0.659779367,28.7767532 0.659779367,23.4146234 C0.659779367,10.319974 25.7303473,14.5158442 25.7303473,6.65966234 Z" id="Clip-5" fill="#FFFFFF"></path>
                <rect id="矩形" fill="#FFFFFF" fill-rule="nonzero" opacity="0" x="0" y="0" width="114" height="40"></rect>
            </g>
        </g>
    </g>
</svg>