<?xml version="1.0" encoding="UTF-8"?>
<svg width="18px" height="18px" viewBox="0 0 18 18" version="1.1" xmlns="http://www.w3.org/2000/svg" xmlns:xlink="http://www.w3.org/1999/xlink">
    <!-- Generator: Sketch 54 (76480) - https://sketchapp.com -->
    <title>nav-Recommend</title>
    <desc>Created with Sketch.</desc>
    <g id="sscbot-后台管理" stroke="none" stroke-width="1" fill="none" fill-rule="evenodd">
        <g id="智能报表-流量分析" transform="translate(-30.000000, -80.000000)">
            <rect fill="#F8F8FB" x="0" y="0" width="1440" height="810"></rect>
            <g id="分组-10" transform="translate(0.000000, 50.000000)">
                <g id="分组-9">
                    <polygon id="矩形" fill="#F8F9FB" fill-rule="nonzero" points="3.51218843e-15 4.58026816e-14 260 0 260 760 3.51218843e-15 760"></polygon>
                    <g id="nav-Recommend" transform="translate(30.000000, 30.000000)" fill="#666666">
                        <g>
                            <path d="M3.33841879,2.25 L14.75,2.25 C15.3022847,2.25 15.75,2.69771525 15.75,3.25 L15.75,15.0959608 C15.75,15.6482455 15.3022847,16.0959608 14.75,16.0959608 C14.6387357,16.0959608 14.5282515,16.0773921 14.4231001,16.0410198 L10.6237255,14.7268001 C9.5746388,14.397555 8.4253612,14.397555 7.37627452,14.7268001 L3.5863108,16.0377645 C3.06436914,16.2183063 2.49489376,15.941547 2.31435195,15.4196054 C2.27724754,15.3123375 2.25867597,15.1995356 2.25943318,15.0860342 L2.33844105,3.24332871 C2.34210813,2.69365972 2.78873757,2.25 3.33841879,2.25 Z M7.44827941,11.6118199 L8.84511801,10.8700285 C8.93969372,10.8198041 9.05172638,10.8198041 9.14630209,10.8700285 L10.5431407,11.6118199 C10.6072548,11.6458677 10.6803086,11.6572573 10.7512173,11.6442605 C10.9311796,11.6112751 11.0513312,11.4329605 11.0195834,11.2459836 L10.7574087,9.70192251 C10.7381056,9.58823758 10.7750094,9.47207619 10.8556571,9.3926688 L11.9593845,8.30591537 C12.0136864,8.25244852 12.0489463,8.1814403 12.0594113,8.10447581 C12.0849737,7.91647838 11.9590116,7.74254619 11.7780671,7.71598739 L10.2361099,7.48966098 C10.1291249,7.47395785 10.0362581,7.40497276 9.98735061,7.30487277 L9.29075423,5.87913387 C9.25897107,5.81408259 9.20809426,5.76122271 9.14548343,5.72820071 C8.98253503,5.64225899 8.78338342,5.70983407 8.70066587,5.87913387 L8.00406949,7.30487277 C7.95516201,7.40497276 7.86229524,7.47395785 7.75531018,7.48966098 L6.21335303,7.71598739 C6.13927593,7.72686033 6.07093163,7.76349453 6.01947063,7.81991305 C5.89376935,7.95772385 5.89939487,8.17531449 6.0320356,8.30591537 L7.135763,9.3926688 C7.21641065,9.47207619 7.25331455,9.58823758 7.23401135,9.70192251 L6.97183671,11.2459836 C6.95932744,11.3196561 6.97028974,11.3955575 7.0030602,11.4621706 C7.08622989,11.6312311 7.28556132,11.6982314 7.44827941,11.6118199 Z" id="形状"></path>
                            <rect id="矩形" fill-rule="nonzero" opacity="0" x="0" y="0" width="18" height="18"></rect>
                        </g>
                    </g>
                    <g id="nav-Recommend" transform="translate(30.000000, 30.000000)" fill="#666666">
                        <path d="M3.33841879,2.25 L14.75,2.25 C15.3022847,2.25 15.75,2.69771525 15.75,3.25 L15.75,15.0959608 C15.75,15.6482455 15.3022847,16.0959608 14.75,16.0959608 C14.6387357,16.0959608 14.5282515,16.0773921 14.4231001,16.0410198 L10.6237255,14.7268001 C9.5746388,14.397555 8.4253612,14.397555 7.37627452,14.7268001 L3.5863108,16.0377645 C3.06436914,16.2183063 2.49489376,15.941547 2.31435195,15.4196054 C2.27724754,15.3123375 2.25867597,15.1995356 2.25943318,15.0860342 L2.33844105,3.24332871 C2.34210813,2.69365972 2.78873757,2.25 3.33841879,2.25 Z M7.44827941,11.6118199 L8.84511801,10.8700285 C8.93969372,10.8198041 9.05172638,10.8198041 9.14630209,10.8700285 L10.5431407,11.6118199 C10.6072548,11.6458677 10.6803086,11.6572573 10.7512173,11.6442605 C10.9311796,11.6112751 11.0513312,11.4329605 11.0195834,11.2459836 L10.7574087,9.70192251 C10.7381056,9.58823758 10.7750094,9.47207619 10.8556571,9.3926688 L11.9593845,8.30591537 C12.0136864,8.25244852 12.0489463,8.1814403 12.0594113,8.10447581 C12.0849737,7.91647838 11.9590116,7.74254619 11.7780671,7.71598739 L10.2361099,7.48966098 C10.1291249,7.47395785 10.0362581,7.40497276 9.98735061,7.30487277 L9.29075423,5.87913387 C9.25897107,5.81408259 9.20809426,5.76122271 9.14548343,5.72820071 C8.98253503,5.64225899 8.78338342,5.70983407 8.70066587,5.87913387 L8.00406949,7.30487277 C7.95516201,7.40497276 7.86229524,7.47395785 7.75531018,7.48966098 L6.21335303,7.71598739 C6.13927593,7.72686033 6.07093163,7.76349453 6.01947063,7.81991305 C5.89376935,7.95772385 5.89939487,8.17531449 6.0320356,8.30591537 L7.135763,9.3926688 C7.21641065,9.47207619 7.25331455,9.58823758 7.23401135,9.70192251 L6.97183671,11.2459836 C6.95932744,11.3196561 6.97028974,11.3955575 7.0030602,11.4621706 C7.08622989,11.6312311 7.28556132,11.6982314 7.44827941,11.6118199 Z" id="形状"></path>
                        <rect id="矩形" fill-rule="nonzero" opacity="0" x="0" y="0" width="18" height="18"></rect>
                    </g>
                </g>
            </g>
        </g>
    </g>
</svg>