<?xml version="1.0" encoding="UTF-8"?>
<svg width="14px" height="50px" viewBox="0 0 14 50" version="1.1" xmlns="http://www.w3.org/2000/svg" xmlns:xlink="http://www.w3.org/1999/xlink">
    <!-- Generator: Sketch 52.6 (67491) - http://www.bohemiancoding.com/sketch -->
    <title>展开</title>
    <desc>Created with Sketch.</desc>
    <g id="前端开发用" stroke="none" stroke-width="1" fill="none" fill-rule="evenodd">
        <g id="通用基础组件_04" transform="translate(-620.000000, -4867.000000)" fill-rule="nonzero">
            <g id="展开" transform="translate(620.000000, 4867.000000)">
                <path d="M7.5,6.5 C11.0898509,6.5 14,9.41014913 14,13 L14,37 C14,40.5898509 11.0898509,43.5 7.5,43.5 C3.91014913,43.5 1,46.4101491 1,50 L0,50 L0,0 L1,0 C1,3.58985087 3.91014913,6.5 7.5,6.5 Z" id="矩形" fill="#F8F9FB"></path>
                <path d="M0,50 C5.68434189e-14,45.8578644 3.35786438,42.5 7.5,42.5 C10.5375661,42.5 13,40.0375661 13,37 L13,13 C13,9.96243388 10.5375661,7.5 7.5,7.5 C3.35786438,7.5 1.0658141e-13,4.14213562 0,0 L1,0 C1,3.58985087 3.91014913,6.5 7.5,6.5 C11.0898509,6.5 14,9.41014913 14,13 L14,37 C14,40.5898509 11.0898509,43.5 7.5,43.5 C3.91014913,43.5 1,46.4101491 1,50 L0,50 Z" id="路径" fill="#E5E5F0"></path>
                <path d="M3.23820097,27.9649244 L6.18851993,24.7714354 C6.33010994,24.6181753 6.33010994,24.3818247 6.18851993,24.2285646 L3.23820097,21.0350756 C2.86319895,20.6291654 2.93807517,20.0456224 3.41272426,19.7168093 C3.90528263,19.3755896 4.6312988,19.4454434 5.02152624,19.867834 L8.76179264,23.9163792 C9.07940245,24.2601669 9.07940245,24.7398331 8.76179264,25.0836208 L5.02152624,29.132166 C4.6312988,29.5545566 3.90528263,29.6244104 3.41272426,29.2831907 C2.93807517,28.9543776 2.86319895,28.3708346 3.23820097,27.9649244 Z" id="箭头" fill="#999999"></path>
            </g>
        </g>
    </g>
</svg>